<svg width="32" height="32" viewBox="0 0 32 32" fill="none" xmlns="http://www.w3.org/2000/svg">
<path d="M7.39996 23.5C8.79996 22.5222 10.1888 21.7722 11.5666 21.25C12.9444 20.7278 14.4222 20.4666 16 20.4666C17.5778 20.4666 19.0611 20.7278 20.45 21.25C21.8388 21.7722 23.2333 22.5222 24.6333 23.5C25.6111 22.3 26.3055 21.0888 26.7166 19.8666C27.1278 18.6444 27.3333 17.3555 27.3333 16C27.3333 12.7778 26.25 10.0833 24.0833 7.91663C21.9166 5.74996 19.2222 4.66663 16 4.66663C12.7778 4.66663 10.0833 5.74996 7.91663 7.91663C5.74996 10.0833 4.66663 12.7778 4.66663 16C4.66663 17.3555 4.87774 18.6444 5.29996 19.8666C5.72218 21.0888 6.42218 22.3 7.39996 23.5ZM16 17C14.7111 17 13.6278 16.5611 12.75 15.6833C11.8722 14.8055 11.4333 13.7222 11.4333 12.4333C11.4333 11.1444 11.8722 10.0611 12.75 9.18329C13.6278 8.30549 14.7111 7.86663 16 7.86663C17.2888 7.86663 18.3722 8.30549 19.25 9.18329C20.1278 10.0611 20.5666 11.1444 20.5666 12.4333C20.5666 13.7222 20.1278 14.8055 19.25 15.6833C18.3722 16.5611 17.2888 17 16 17ZM16 29.3333C14.1778 29.3333 12.4555 28.9833 10.8333 28.2833C9.21109 27.5833 7.79443 26.6278 6.58329 25.4166C5.37218 24.2055 4.41663 22.7888 3.71663 21.1666C3.01663 19.5444 2.66663 17.8222 2.66663 16C2.66663 14.1555 3.01663 12.4278 3.71663 10.8166C4.41663 9.20549 5.37218 7.79443 6.58329 6.58329C7.79443 5.37218 9.21109 4.41663 10.8333 3.71663C12.4555 3.01663 14.1778 2.66663 16 2.66663C17.8444 2.66663 19.5722 3.01663 21.1833 3.71663C22.7944 4.41663 24.2055 5.37218 25.4166 6.58329C26.6278 7.79443 27.5833 9.20549 28.2833 10.8166C28.9833 12.4278 29.3333 14.1555 29.3333 16C29.3333 17.8222 28.9833 19.5444 28.2833 21.1666C27.5833 22.7888 26.6278 24.2055 25.4166 25.4166C24.2055 26.6278 22.7944 27.5833 21.1833 28.2833C19.5722 28.9833 17.8444 29.3333 16 29.3333ZM16 27.3333C17.2222 27.3333 18.4166 27.1555 19.5833 26.8C20.75 26.4444 21.9 25.8222 23.0333 24.9333C21.9 24.1333 20.7444 23.5222 19.5666 23.1C18.3888 22.6778 17.2 22.4666 16 22.4666C14.8 22.4666 13.6111 22.6778 12.4333 23.1C11.2555 23.5222 10.1 24.1333 8.96663 24.9333C10.1 25.8222 11.25 26.4444 12.4166 26.8C13.5833 27.1555 14.7778 27.3333 16 27.3333ZM16 15C16.7555 15 17.3722 14.7611 17.85 14.2833C18.3278 13.8055 18.5666 13.1888 18.5666 12.4333C18.5666 11.6778 18.3278 11.0611 17.85 10.5833C17.3722 10.1055 16.7555 9.86663 16 9.86663C15.2444 9.86663 14.6278 10.1055 14.15 10.5833C13.6722 11.0611 13.4333 11.6778 13.4333 12.4333C13.4333 13.1888 13.6722 13.8055 14.15 14.2833C14.6278 14.7611 15.2444 15 16 15Z" fill="url(#paint0_linear_61_58)"/>
<defs>
<linearGradient id="paint0_linear_61_58" x1="16" y1="2.66663" x2="16" y2="29.3333" gradientUnits="userSpaceOnUse">
<stop stop-color="#FFC700"/>
<stop offset="1" stop-color="#FF9500"/>
</linearGradient>
</defs>
</svg>
