<svg width="32" height="32" viewBox="0 0 32 32" fill="none" xmlns="http://www.w3.org/2000/svg">
<path d="M7.33337 29.3333C6.80004 29.3333 6.33337 29.1333 5.93337 28.7333C5.53337 28.3333 5.33337 27.8666 5.33337 27.3333V9.99996C5.33337 9.46663 5.53337 8.99996 5.93337 8.59996C6.33337 8.19996 6.80004 7.99996 7.33337 7.99996H11V7.66663C11 6.26663 11.4834 5.08329 12.45 4.11663C13.4167 3.14996 14.6 2.66663 16 2.66663C17.4 2.66663 18.5834 3.14996 19.55 4.11663C20.5167 5.08329 21 6.26663 21 7.66663V7.99996H24.6667C25.2 7.99996 25.6667 8.19996 26.0667 8.59996C26.4667 8.99996 26.6667 9.46663 26.6667 9.99996V27.3333C26.6667 27.8666 26.4667 28.3333 26.0667 28.7333C25.6667 29.1333 25.2 29.3333 24.6667 29.3333H7.33337ZM7.33337 27.3333H24.6667V9.99996H21V13C21 13.2888 20.9056 13.5278 20.7167 13.7166C20.5278 13.9055 20.2889 14 20 14C19.7112 14 19.4722 13.9055 19.2834 13.7166C19.0945 13.5278 19 13.2888 19 13V9.99996H13V13C13 13.2888 12.9056 13.5278 12.7167 13.7166C12.5278 13.9055 12.2889 14 12 14C11.7112 14 11.4722 13.9055 11.2834 13.7166C11.0945 13.5278 11 13.2888 11 13V9.99996H7.33337V27.3333ZM13 7.99996H19V7.66663C19 6.82216 18.7112 6.11107 18.1334 5.53329C17.5556 4.95551 16.8445 4.66663 16 4.66663C15.1556 4.66663 14.4445 4.95551 13.8667 5.53329C13.2889 6.11107 13 6.82216 13 7.66663V7.99996ZM7.33337 27.3333V9.99996V27.3333Z" fill="url(#paint0_linear_61_60)"/>
<defs>
<linearGradient id="paint0_linear_61_60" x1="16" y1="2.66663" x2="16" y2="29.3333" gradientUnits="userSpaceOnUse">
<stop stop-color="#FFC700"/>
<stop offset="1" stop-color="#FF9500"/>
</linearGradient>
</defs>
</svg>
