<svg width="32" height="32" viewBox="0 0 32 32" fill="none" xmlns="http://www.w3.org/2000/svg">
<path d="M25.946 13.333C25.8142 13.5274 25.7362 13.7532 25.7199 13.9875C25.7036 14.2218 25.7495 14.4562 25.853 14.667C26.183 15.439 26.417 16.249 26.546 17.08C26.8892 19.227 26.5682 21.4276 25.626 23.387C25.5114 23.6016 25.3404 23.7809 25.1314 23.9053C24.9223 24.0298 24.6832 24.0947 24.44 24.093H7.57295C7.32805 24.0936 7.08772 24.0267 6.87832 23.8997C6.66893 23.7727 6.49857 23.5905 6.38595 23.373C5.53264 21.6416 5.16515 19.711 5.32264 17.7872C5.48014 15.8633 6.15672 14.0183 7.28027 12.4487C8.40382 10.879 9.93223 9.64373 11.7026 8.87438C13.4729 8.10504 15.4189 7.83049 17.333 8.08001C18.301 8.19401 19.249 8.44501 20.146 8.82701C20.3569 8.93024 20.5913 8.97591 20.8256 8.9594C21.0598 8.94289 21.2856 8.8648 21.48 8.73301C21.6824 8.5996 21.8446 8.41351 21.9491 8.19477C22.0536 7.97603 22.0965 7.73293 22.0732 7.49163C22.0498 7.25032 21.9611 7.01995 21.8166 6.82531C21.6721 6.63068 21.4772 6.47914 21.253 6.38701C18.6773 5.28236 15.819 5.01743 13.0841 5.62985C10.3493 6.24227 7.87699 7.7009 6.0184 9.79853C4.1598 11.8962 3.00946 14.5261 2.73077 17.3148C2.45208 20.1035 3.05923 22.9091 4.46595 25.333C4.69856 25.7363 5.03272 26.0717 5.43518 26.3057C5.83765 26.5397 6.29439 26.6643 6.75995 26.667H25.226C25.6959 26.6687 26.1579 26.5462 26.5653 26.3119C26.9727 26.0777 27.311 25.74 27.546 25.333C28.5759 23.5484 29.1781 21.5493 29.3055 19.4927C29.4328 17.4362 29.0818 15.3781 28.28 13.48C28.1783 13.2637 28.0204 13.0786 27.8228 12.9442C27.6251 12.8098 27.395 12.731 27.1564 12.716C26.9179 12.7009 26.6797 12.7503 26.4668 12.8588C26.2538 12.9674 26.0739 13.1311 25.946 13.333V13.333Z" fill="url(#paint0_linear_61_55)"/>
<path d="M14.12 16.787C13.6197 17.2875 13.3387 17.9662 13.3387 18.6738C13.3388 19.3815 13.62 20.0602 14.1205 20.5605C14.621 21.0608 15.2997 21.3419 16.0074 21.3418C16.715 21.3417 17.3937 21.0605 17.894 20.56L25.44 9.23999L14.12 16.787V16.787Z" fill="url(#paint1_linear_61_55)"/>
<defs>
<linearGradient id="paint0_linear_61_55" x1="15.9978" y1="5.30762" x2="15.9978" y2="26.667" gradientUnits="userSpaceOnUse">
<stop stop-color="#FFC700"/>
<stop offset="1" stop-color="#FF9500"/>
</linearGradient>
<linearGradient id="paint1_linear_61_55" x1="19.3894" y1="9.23999" x2="19.3894" y2="21.3418" gradientUnits="userSpaceOnUse">
<stop stop-color="#FFC700"/>
<stop offset="1" stop-color="#FF9500"/>
</linearGradient>
</defs>
</svg>
