<svg width="40" height="44" viewBox="0 0 40 44" fill="none" xmlns="http://www.w3.org/2000/svg">
<path d="M7.1 33.9354C9.2 32.3775 11.2833 31.1825 13.35 30.3504C15.4167 29.5184 17.6333 29.1023 20 29.1023C22.3667 29.1023 24.5917 29.5184 26.675 30.3504C28.7583 31.1825 30.85 32.3775 32.95 33.9354C34.4167 32.0234 35.4583 30.0937 36.075 28.1464C36.6917 26.199 37 24.1454 37 21.9856C37 16.8516 35.375 12.5586 32.125 9.10643C28.875 5.65428 24.8333 3.92821 20 3.92821C15.1667 3.92821 11.125 5.65428 7.875 9.10643C4.625 12.5586 3 16.8516 3 21.9856C3 24.1454 3.31667 26.199 3.95 28.1464C4.58333 30.0937 5.63333 32.0234 7.1 33.9354ZM20 23.5789C18.0667 23.5789 16.4417 22.8796 15.125 21.4811C13.8083 20.0825 13.15 18.3564 13.15 16.3028C13.15 14.2493 13.8083 12.5232 15.125 11.1246C16.4417 9.72605 18.0667 9.02677 20 9.02677C21.9333 9.02677 23.5583 9.72605 24.875 11.1246C26.1917 12.5232 26.85 14.2493 26.85 16.3028C26.85 18.3564 26.1917 20.0825 24.875 21.4811C23.5583 22.8796 21.9333 23.5789 20 23.5789ZM20 43.2296C17.2667 43.2296 14.6833 42.672 12.25 41.5566C9.81667 40.4413 7.69167 38.9188 5.875 36.9892C4.05833 35.0595 2.625 32.8023 1.575 30.2177C0.525 27.633 0 24.889 0 21.9856C0 19.0469 0.525 16.294 1.575 13.727C2.625 11.16 4.05833 8.9117 5.875 6.98203C7.69167 5.05237 9.81667 3.52988 12.25 2.41457C14.6833 1.29926 17.2667 0.741608 20 0.741608C22.7667 0.741608 25.3583 1.29926 27.775 2.41457C30.1917 3.52988 32.3083 5.05237 34.125 6.98203C35.9417 8.9117 37.375 11.16 38.425 13.727C39.475 16.294 40 19.0469 40 21.9856C40 24.889 39.475 27.633 38.425 30.2177C37.375 32.8023 35.9417 35.0595 34.125 36.9892C32.3083 38.9188 30.1917 40.4413 27.775 41.5566C25.3583 42.672 22.7667 43.2296 20 43.2296ZM20 40.043C21.8333 40.043 23.625 39.7598 25.375 39.1932C27.125 38.6267 28.85 37.6354 30.55 36.2191C28.85 34.9444 27.1167 33.9708 25.35 33.298C23.5833 32.6253 21.8 32.2889 20 32.2889C18.2 32.2889 16.4167 32.6253 14.65 33.298C12.8833 33.9708 11.15 34.9444 9.45 36.2191C11.15 37.6354 12.875 38.6267 14.625 39.1932C16.375 39.7598 18.1667 40.043 20 40.043ZM20 20.3923C21.1333 20.3923 22.0583 20.0117 22.775 19.2504C23.4917 18.4892 23.85 17.5067 23.85 16.3028C23.85 15.099 23.4917 14.1165 22.775 13.3552C22.0583 12.594 21.1333 12.2134 20 12.2134C18.8667 12.2134 17.9417 12.594 17.225 13.3552C16.5083 14.1165 16.15 15.099 16.15 16.3028C16.15 17.5067 16.5083 18.4892 17.225 19.2504C17.9417 20.0117 18.8667 20.3923 20 20.3923Z" fill="#F5F5F5"/>
</svg>
