<svg width="32" height="44" viewBox="0 0 32 44" fill="none" xmlns="http://www.w3.org/2000/svg">
<path d="M3 43.2296C2.2 43.2296 1.5 42.9109 0.9 42.2736C0.3 41.6363 0 40.8928 0 40.043V12.4258C0 11.576 0.3 10.8325 0.9 10.1952C1.5 9.55787 2.2 9.23921 3 9.23921H8.5V8.70811C8.5 6.47749 9.225 4.59208 10.675 3.05189C12.125 1.5117 13.9 0.741608 16 0.741608C18.1 0.741608 19.875 1.5117 21.325 3.05189C22.775 4.59208 23.5 6.47749 23.5 8.70811V9.23921H29C29.8 9.23921 30.5 9.55787 31.1 10.1952C31.7 10.8325 32 11.576 32 12.4258V40.043C32 40.8928 31.7 41.6363 31.1 42.2736C30.5 42.9109 29.8 43.2296 29 43.2296H3ZM3 40.043H29V12.4258H23.5V17.2057C23.5 17.666 23.3583 18.0466 23.075 18.3476C22.7917 18.6485 22.4333 18.799 22 18.799C21.5667 18.799 21.2083 18.6485 20.925 18.3476C20.6417 18.0466 20.5 17.666 20.5 17.2057V12.4258H11.5V17.2057C11.5 17.666 11.3583 18.0466 11.075 18.3476C10.7917 18.6485 10.4333 18.799 10 18.799C9.56667 18.799 9.20833 18.6485 8.925 18.3476C8.64167 18.0466 8.5 17.666 8.5 17.2057V12.4258H3V40.043ZM11.5 9.23921H20.5V8.70811C20.5 7.36265 20.0667 6.22964 19.2 5.30907C18.3333 4.38849 17.2667 3.92821 16 3.92821C14.7333 3.92821 13.6667 4.38849 12.8 5.30907C11.9333 6.22964 11.5 7.36265 11.5 8.70811V9.23921ZM3 40.043V12.4258V40.043Z" fill="#F5F5F5"/>
</svg>
